<svg width="262" height="52" viewBox="0 0 262 52" fill="none" xmlns="http://www.w3.org/2000/svg">
<path d="M71.1248 1.89624C78.1068 1.89624 82.0371 4.76442 82.0371 9.79266C82.0371 12.4749 80.4196 14.3242 77.7833 15.203C81.8588 16.2219 83.8966 18.6265 83.8966 22.0474C83.8966 27.1801 79.3651 30.0941 71.2725 30.0941H59.9348V1.89624H71.1248ZM67.4721 12.7169H72.0036C73.8529 12.7169 74.9151 11.9298 74.9151 10.4982C74.9151 8.9699 73.5294 8.1395 71.1248 8.1395H67.4721V12.7169ZM67.4721 23.861H71.4942C74.4082 23.861 76.0792 22.8421 76.0792 21.0871C76.0792 19.467 74.5992 18.5398 72.0036 18.5398H67.4721V23.861Z" fill="#1D88FB"/>
<path d="M87.1248 30.1043V1.89624H94.662V23.2599H107.24V30.1043H87.1248Z" fill="#1D88FB"/>
<path d="M135.078 16.6473C135.078 26.0338 130.87 30.5195 122.179 30.5195C113.531 30.5195 109.323 26.0338 109.323 16.6473V1.89624H116.858V16.6473C116.858 21.4564 118.661 23.7795 122.176 23.7795C125.742 23.7795 127.538 21.4666 127.538 16.6473V1.89624H135.076L135.078 16.6473Z" fill="#1D88FB"/>
<path d="M150.703 1.89624C157.687 1.89624 161.617 4.76442 161.617 9.79266C161.617 12.4749 159.997 14.3242 157.361 15.203C161.437 16.2219 163.474 18.6265 163.474 22.0474C163.474 27.1801 158.943 30.0941 150.85 30.0941H139.523V1.89624H150.703ZM147.05 12.7169H151.581C153.431 12.7169 154.495 11.9298 154.495 10.4982C154.495 8.9699 153.107 8.1395 150.703 8.1395H147.05V12.7169ZM147.05 23.861H151.074C153.986 23.861 155.659 22.8421 155.659 21.0871C155.659 19.467 154.179 18.5398 151.584 18.5398H147.05V23.861Z" fill="#1D88FB"/>
<path d="M166.705 30.1043V1.89624H174.243V30.1043H166.705Z" fill="#1D88FB"/>
<path d="M204.67 30.1043H196.624L190.979 22.2435H187.143V30.1043H179.605V1.89624H191.305C199.26 1.89624 203.746 5.68907 203.746 12.4392C203.746 16.5556 201.848 19.467 198.381 20.9928L204.67 29.5031V30.1043ZM191.399 16.3696C194.542 16.3696 196.3 14.9355 196.3 12.4392C196.3 9.85124 194.542 8.36366 191.399 8.36366H187.143V16.362L191.399 16.3696Z" fill="#1D88FB"/>
<path d="M231.857 27.274C227.782 29.541 224.18 30.5115 219.835 30.5115C211.281 30.5115 205.917 25.333 205.917 16.0382C205.917 6.69748 211.281 1.42726 220.296 1.42726C223.963 1.42356 227.578 2.29693 230.839 3.97449L228.574 9.6217C225.199 8.6512 222.886 8.18761 220.678 8.18761C216.006 8.18761 213.545 10.824 213.545 16.0484C213.545 20.6716 216.182 23.7716 220.204 23.7716C223.35 23.7716 225.614 23.2163 229.407 21.6905L231.857 27.274Z" fill="#1D88FB"/>
<path d="M253.037 30.1043V19.3295H242.402V30.1043H234.865V1.89624H242.402V12.4978H253.037V1.89624H260.574V30.1043H253.037Z" fill="#1D88FB"/>
<path d="M69.1535 47.9878C68.0276 48.8767 66.5044 49.3505 64.6347 49.3505C61.4048 49.3505 59.5173 47.2975 59.5173 43.6498C59.5173 40.0022 61.4048 37.9338 64.8156 37.9338C66.1605 37.9338 67.7016 38.2803 68.7001 38.8789L68.2824 39.8213C67.2009 39.3482 66.0342 39.1012 64.8538 39.0954C62.1843 39.0954 60.7782 40.6925 60.7782 43.6804C60.7782 46.546 62.2123 48.1992 64.6806 48.1992C66.2955 48.1992 67.564 47.8171 68.6364 47.0555L69.1535 47.9878Z" fill="#1D88FB"/>
<path d="M72.3288 42.4691C72.5208 41.9162 72.8777 41.4354 73.3514 41.0916C73.8251 40.7477 74.3927 40.5573 74.9779 40.5459C75.3422 40.541 75.7063 40.5597 76.0681 40.602L75.9764 41.7814C75.5409 41.7431 75.2505 41.7431 74.9423 41.7431C73.7629 41.7431 72.8 42.543 72.3288 44.0484V49.1785H71.1138V40.6911H72.3288V42.4691Z" fill="#1D88FB"/>
<path d="M84.178 48.0024C83.6912 48.4545 83.12 48.806 82.4971 49.0368C81.8743 49.2676 81.2119 49.3731 80.5481 49.3474C78.3168 49.3474 76.5745 48.1119 76.5745 45.0171C76.5745 41.8407 78.3703 40.5339 80.622 40.5339C82.8738 40.5339 84.2875 41.8763 84.3588 44.6706C84.3623 44.8716 84.3503 45.0726 84.3231 45.2718H77.736C77.8277 47.5388 79.0784 48.3743 80.5838 48.3743C81.7247 48.3902 82.8309 47.9827 83.6889 47.2306L84.178 48.0024ZM83.2711 44.3013C83.1616 42.3781 82.1453 41.5248 80.6398 41.5248C79.2058 41.5248 77.9729 42.289 77.7717 44.3013H83.2711Z" fill="#1D88FB"/>
<path d="M86.7437 41.0734C88.2491 40.6557 89.1559 40.5283 90.101 40.5283C92.4419 40.5283 93.1118 41.5982 93.1118 44.0944V49.1787H91.8968V47.8542C91.1173 48.6896 90.2079 49.3443 88.7764 49.3443C86.8329 49.3443 85.8726 48.5266 85.8726 46.7487C85.8726 44.9325 87.0341 44.0613 89.4107 44.0613C90.4983 44.0613 91.0434 44.0613 91.8968 44.0792C91.8968 42.1942 91.4968 41.6134 89.9176 41.6134C88.9121 41.6382 87.9132 41.7836 86.9424 42.0465L86.7437 41.0734ZM89.5457 44.9758C87.839 44.9758 86.9984 45.3732 86.9984 46.6442C86.9984 47.7879 87.6887 48.4273 89.105 48.4273C90.2309 48.4273 91.1733 47.7752 91.907 46.848V44.9605L89.5457 44.9758Z" fill="#1D88FB"/>
<path d="M100.167 48.9248C99.5803 49.1211 98.9684 49.231 98.3504 49.2509C96.6081 49.2509 95.9178 48.4332 95.9178 46.5457V41.7264H94.5933V40.6922H95.9178V38.4812H97.1176V40.6947H99.7871V41.7289H97.1176V46.5024C97.1176 47.8092 97.627 48.1174 98.7147 48.1174C99.1527 48.122 99.5903 48.0854 100.021 48.0078L100.167 48.9248Z" fill="#1D88FB"/>
<path d="M102.398 37.4973C102.538 37.5063 102.673 37.5562 102.785 37.6408C102.897 37.7254 102.982 37.8411 103.029 37.9734C103.076 38.1058 103.083 38.2491 103.05 38.3855C103.016 38.5219 102.944 38.6455 102.841 38.741C102.738 38.8365 102.609 38.8997 102.47 38.9227C102.332 38.9458 102.189 38.9277 102.061 38.8707C101.933 38.8137 101.824 38.7203 101.748 38.602C101.672 38.4838 101.632 38.3459 101.634 38.2054C101.633 38.1072 101.652 38.0097 101.69 37.9194C101.729 37.8291 101.786 37.7479 101.858 37.6811C101.93 37.6143 102.016 37.5634 102.109 37.5318C102.202 37.5001 102.3 37.4883 102.398 37.4973ZM101.782 49.1789V40.6915H102.997V49.1789H101.782Z" fill="#1D88FB"/>
<path d="M107.009 42.1086C107.918 41.1279 108.97 40.5471 110.32 40.5471C112.279 40.5471 113.122 41.5991 113.122 43.8865V49.1797H111.907V44.1591C111.907 42.4524 111.563 41.673 110.093 41.673C108.932 41.673 107.859 42.3073 107.006 43.3975V49.1797H105.791V40.6923H107.006L107.009 42.1086Z" fill="#1D88FB"/>
<path d="M123.065 47.951C123.065 50.7988 121.56 51.9985 119.328 51.9985C118.014 52.0235 116.718 51.6907 115.579 51.0357L115.943 50.1288C116.953 50.6476 118.073 50.915 119.209 50.9083C120.841 50.9083 121.858 50.0753 121.858 47.951V47.3523C120.987 48.2948 120.172 48.8043 118.699 48.8043C116.776 48.8043 115.108 47.6962 115.108 44.8841C115.108 41.7077 116.486 40.5283 118.536 40.5283C119.777 40.5592 120.96 41.0589 121.848 41.9268V40.6913H123.063L123.065 47.951ZM121.85 43.1596C120.979 42.1611 120.019 41.5625 118.875 41.5625C117.367 41.5625 116.297 42.3802 116.297 44.8739C116.297 47.0874 117.64 47.8134 119.056 47.8134C120.309 47.8134 121.094 47.1053 121.858 46.1985L121.85 43.1596Z" fill="#1D88FB"/>
<path d="M136.495 39.8207C135.361 39.3063 134.13 39.0406 132.885 39.0412C131.54 39.0412 130.743 39.8207 130.743 40.6562C130.743 41.9808 131.596 42.2533 133.845 42.9971C136.095 43.7409 137.259 44.4669 137.259 46.3085C137.259 48.466 135.606 49.3652 133.693 49.3652C131.986 49.3416 130.328 48.7968 128.939 47.8037L129.449 46.8587C130.791 47.7299 132.371 48.2215 133.642 48.2215C135.129 48.2215 135.983 47.6025 135.983 46.4792C135.983 45.2055 135.328 44.7547 132.842 43.9752C130.773 43.3206 129.467 42.8137 129.467 40.781C129.467 39.11 130.791 37.9485 132.898 37.9485C134.276 37.962 135.636 38.2649 136.889 38.8375L136.495 39.8207Z" fill="#1D88FB"/>
<path d="M145.449 47.7707C144.54 48.6953 143.396 49.3499 142.092 49.3499C140.148 49.3499 139.333 48.2419 139.333 45.9545V40.6919H140.53V45.7023C140.53 47.4064 141.002 48.2495 142.454 48.2495C143.579 48.2495 144.703 47.4701 145.449 46.4537V40.6919H146.662V49.1793H145.447L145.449 47.7707Z" fill="#1D88FB"/>
<path d="M154.574 42.1791C153.688 41.7892 152.739 41.5623 151.772 41.5092C150.699 41.5092 150.101 41.9626 150.101 42.7828C150.101 43.603 150.883 43.8348 152.225 44.2703C154.385 44.9785 155.218 45.4497 155.218 47.0112C155.218 48.5726 153.985 49.3521 152.261 49.3521C150.913 49.3417 149.608 48.8738 148.56 48.025L149.085 47.1742C149.961 47.932 151.084 48.3448 152.243 48.3357C153.277 48.3357 154.077 47.9715 154.077 47.029C154.077 45.9566 153.405 45.7554 151.609 45.195C149.813 44.6346 148.978 44.143 148.978 42.8184C148.978 41.3487 149.996 40.5132 151.78 40.5132C152.862 40.5467 153.925 40.807 154.9 41.2774L154.574 42.1791Z" fill="#1D88FB"/>
<path d="M161.649 48.9248C161.063 49.1211 160.451 49.231 159.833 49.2509C158.091 49.2509 157.4 48.4332 157.4 46.5457V41.7264H156.081V40.6922H157.405V38.4812H158.605V40.6947H161.272V41.7289H158.6V46.5024C158.6 47.8092 159.109 48.1174 160.197 48.1174C160.635 48.122 161.073 48.0854 161.504 48.0078L161.649 48.9248Z" fill="#1D88FB"/>
<path d="M163.494 41.0741C164.991 40.6563 165.908 40.5188 166.851 40.5188C169.192 40.5188 169.864 41.5886 169.864 44.0849V49.1794H168.647V47.8548C167.867 48.6903 166.96 49.345 165.526 49.345C163.585 49.345 162.623 48.5273 162.623 46.7493C162.623 44.9331 163.784 44.062 166.161 44.062C167.251 44.062 167.796 44.062 168.647 44.0798C168.647 42.1949 168.249 41.6141 166.67 41.6141C165.664 41.6388 164.664 41.7842 163.692 42.0471L163.494 41.0741ZM166.296 44.9765C164.592 44.9765 163.748 45.3738 163.748 46.6449C163.748 47.7886 164.439 48.4279 165.852 48.4279C166.978 48.4279 167.921 47.7759 168.654 46.8487V44.9612L166.296 44.9765Z" fill="#1D88FB"/>
<path d="M173.083 37.4973C173.224 37.5063 173.358 37.5562 173.47 37.6408C173.582 37.7254 173.667 37.8411 173.714 37.9734C173.761 38.1058 173.769 38.2491 173.735 38.3855C173.702 38.5219 173.629 38.6455 173.526 38.741C173.423 38.8365 173.294 38.8997 173.155 38.9227C173.017 38.9458 172.874 38.9277 172.746 38.8707C172.618 38.8137 172.509 38.7203 172.433 38.602C172.357 38.4838 172.317 38.3459 172.319 38.2054C172.318 38.1072 172.337 38.0097 172.376 37.9194C172.414 37.8291 172.471 37.7479 172.543 37.6811C172.616 37.6143 172.701 37.5634 172.794 37.5318C172.887 37.5001 172.985 37.4883 173.083 37.4973ZM172.464 49.1789V40.6915H173.682V49.1789H172.464Z" fill="#1D88FB"/>
<path d="M177.691 42.1086C178.598 41.1279 179.652 40.5471 181.002 40.5471C182.961 40.5471 183.804 41.5991 183.804 43.8865V49.1797H182.589V44.1591C182.589 42.4524 182.245 41.673 180.773 41.673C179.611 41.673 178.542 42.3073 177.688 43.3975V49.1797H176.473V40.6923H177.688L177.691 42.1086Z" fill="#1D88FB"/>
<path d="M186.497 41.0734C188.002 40.6557 188.909 40.5283 189.854 40.5283C192.195 40.5283 192.865 41.5982 192.865 44.0944V49.1787H191.65V47.8542C190.87 48.6896 189.961 49.3443 188.529 49.3443C186.586 49.3443 185.625 48.5266 185.625 46.7487C185.625 44.9325 186.787 44.0613 189.164 44.0613C190.251 44.0613 190.796 44.0613 191.65 44.0792C191.65 42.1942 191.25 41.6134 189.67 41.6134C188.665 41.6382 187.666 41.7836 186.695 42.0465L186.497 41.0734ZM189.299 44.9758C187.592 44.9758 186.751 45.3732 186.751 46.6442C186.751 47.7879 187.442 48.4273 188.858 48.4273C189.981 48.4273 190.926 47.7752 191.66 46.848V44.9605L189.299 44.9758Z" fill="#1D88FB"/>
<path d="M196.545 41.9985C196.972 41.5478 197.485 41.1871 198.053 40.9378C198.622 40.6884 199.235 40.5554 199.856 40.5465C201.906 40.5465 203.287 41.7081 203.287 44.9201C203.287 48.1322 201.504 49.3498 199.657 49.3498C198.17 49.3498 197.388 48.7868 196.534 47.8979V49.1715H195.337V37.2988H196.534L196.545 41.9985ZM196.545 46.7159C197.327 47.6431 198.216 48.3334 199.346 48.3334C200.76 48.3334 202.105 47.4241 202.105 44.9201C202.105 42.4162 201.033 41.5629 199.527 41.5629C198.384 41.5629 197.296 42.2889 196.55 43.16L196.545 46.7159Z" fill="#1D88FB"/>
<path d="M205.421 49.1791V37.2988H206.639V49.1791H205.421Z" fill="#1D88FB"/>
<path d="M216.325 48.0024C215.838 48.4545 215.267 48.806 214.644 49.0368C214.021 49.2676 213.359 49.3731 212.695 49.3474C210.464 49.3474 208.722 48.1119 208.722 45.0171C208.722 41.8407 210.517 40.5339 212.769 40.5339C215.021 40.5339 216.435 41.8763 216.506 44.6706C216.509 44.8716 216.498 45.0726 216.47 45.2718H209.883C209.975 47.5388 211.226 48.3743 212.731 48.3743C213.872 48.3902 214.978 47.9827 215.836 47.2306L216.325 48.0024ZM215.431 44.3013C215.322 42.3781 214.305 41.5248 212.8 41.5248C211.366 41.5248 210.13 42.289 209.932 44.3013H215.431Z" fill="#1D88FB"/>
<path d="M225.434 49.1812L221.715 40.6887H222.966L225.617 46.5474C225.806 46.977 225.963 47.4197 226.088 47.8719C226.251 47.4363 226.397 46.9829 226.578 46.5474L229.244 40.6887H230.48L226.758 49.1812H225.434Z" fill="#1D88FB"/>
<path d="M231.66 41.0734C233.166 40.6557 234.073 40.5283 235.018 40.5283C237.359 40.5283 238.031 41.5982 238.031 44.0944V49.1787H236.813V47.8542C236.034 48.6896 235.127 49.3443 233.693 49.3443C231.752 49.3443 230.789 48.5266 230.789 46.7487C230.789 44.9325 231.951 44.0613 234.327 44.0613C235.418 44.0613 235.96 44.0613 236.813 44.0792C236.813 42.1942 236.416 41.6134 234.837 41.6134C233.831 41.638 232.831 41.7834 231.859 42.0465L231.66 41.0734ZM234.462 44.9758C232.756 44.9758 231.915 45.3732 231.915 46.6442C231.915 47.7879 232.603 48.4273 234.019 48.4273C235.145 48.4273 236.088 47.7752 236.821 46.848V44.9605L234.462 44.9758Z" fill="#1D88FB"/>
<path d="M240.497 49.1791V37.2988H241.715V49.1791H240.497Z" fill="#1D88FB"/>
<path d="M250.276 47.7707C249.369 48.6953 248.238 49.3499 246.921 49.3499C244.978 49.3499 244.163 48.2419 244.163 45.9545V40.6919H245.36V45.7023C245.36 47.4064 245.831 48.2495 247.283 48.2495C248.409 48.2495 249.532 47.4701 250.276 46.4537V40.6919H251.494V49.1793H250.276V47.7707Z" fill="#1D88FB"/>
<path d="M261.116 48.0024C260.63 48.4544 260.058 48.8058 259.436 49.0366C258.813 49.2674 258.15 49.373 257.487 49.3474C255.253 49.3474 253.513 48.1119 253.513 45.0171C253.513 41.8407 255.296 40.5339 257.558 40.5339C259.82 40.5339 261.223 41.8763 261.297 44.6706C261.301 44.8716 261.289 45.0726 261.262 45.2718H254.674C254.764 47.5388 256.017 48.3743 257.522 48.3743C258.662 48.39 259.768 47.9825 260.625 47.2306L261.116 48.0024ZM260.207 44.3013C260.1 42.3781 259.084 41.5248 257.576 41.5248C256.144 41.5248 254.909 42.289 254.71 44.3013H260.207Z" fill="#1D88FB"/>
<path d="M25.8421 48.1484C21.5712 48.4588 17.295 47.6234 13.4549 45.7285C13.3581 45.6241 6.70728 38.446 8.03693 31.1354C9.37678 23.7688 20.7578 23.7688 20.7578 23.7688C20.7578 23.7688 5.35725 27.1185 10.0467 31.8054C14.7362 36.4923 24.7773 32.4753 24.7773 32.4753C24.7773 32.4753 34.1512 27.7858 36.8283 20.4218C39.5054 13.0577 38.8381 9.70813 38.8381 9.70813C38.8381 9.70813 38.1681 14.395 27.4545 13.7251C27.4545 13.7251 1.69178 11.7485 5.86924 39.8546C1.7661 35.1226 -0.325332 28.9744 0.0411745 22.7219C0.713644 10.6532 10.4644 0.815747 22.5281 0.0515776C25.9477 -0.172466 29.3758 0.335058 32.5838 1.54032C35.7917 2.74558 38.7059 4.62088 41.132 7.04118C43.5581 9.46149 45.4404 12.3712 46.6533 15.5763C47.8662 18.7814 48.3819 22.2082 48.166 25.6283C47.4299 37.5774 37.7861 47.3078 25.8421 48.1484Z" fill="#1D88FB"/>
</svg>
